<?xml version="1.0" encoding="UTF-8"?>
<!DOCTYPE svg PUBLIC "-//W3C//DTD SVG 1.1//EN" "http://www.w3.org/Graphics/SVG/1.1/DTD/svg11.dtd">
<svg xmlns="http://www.w3.org/2000/svg" version="1.1" width="512px" height="512px" style="shape-rendering:geometricPrecision; text-rendering:geometricPrecision; image-rendering:optimizeQuality; fill-rule:evenodd; clip-rule:evenodd" xmlns:xlink="http://www.w3.org/1999/xlink">
<g><path style="opacity:0.98" fill="#040202" d="M 511.5,307.5 C 511.5,313.167 511.5,318.833 511.5,324.5C 490.409,412.096 437.076,470.262 351.5,499C 278.447,520.973 211.114,509.807 149.5,465.5C 118.707,489.215 85.374,493.381 49.5,478C 21.824,463.164 5.15738,440.33 -0.5,409.5C -0.5,400.5 -0.5,391.5 -0.5,382.5C 5.51742,350.968 22.8508,327.801 51.5,313C 10.3591,241.324 10.1924,169.491 51,97.5C 97.0706,29.0494 161.571,-2.7839 244.5,2C 322.428,12.3514 378.261,52.8514 412,123.5C 429.859,166.684 433.359,211.018 422.5,256.5C 451.194,263.225 477.527,275.058 501.5,292C 505.992,296.5 509.325,301.667 511.5,307.5 Z"/></g>
<g><path style="opacity:1" fill="#fb8b5a" d="M 208.5,13.5 C 234.012,12.6305 259.012,15.6305 283.5,22.5C 282.361,32.5142 282.361,42.5142 283.5,52.5C 274.45,52.7428 265.45,53.5761 256.5,55C 247.152,57.34 237.819,59.34 228.5,61C 215.649,45.3153 201.315,31.1487 185.5,18.5C 186.025,17.8076 186.692,17.3076 187.5,17C 194.65,15.8653 201.65,14.6987 208.5,13.5 Z"/></g>
<g><path style="opacity:1" fill="#fc8b5b" d="M 100.5,70.5 C 97.1667,69.8333 93.8333,69.1667 90.5,68.5C 111.973,47.7526 136.973,32.586 165.5,23C 167.5,22.3333 169.5,22.3333 171.5,23C 187.867,35.19 202.534,49.19 215.5,65C 194.942,72.4037 175.442,81.9037 157,93.5C 140.734,79.6853 121.901,72.0187 100.5,70.5 Z"/></g>
<g><path style="opacity:1" fill="#f6734a" d="M 295.5,27.5 C 316.915,36.0358 336.249,47.8692 353.5,63C 335.049,57.0437 316.049,53.3771 296.5,52C 294.482,43.9126 294.149,35.746 295.5,27.5 Z"/></g>
<g><path style="opacity:1" fill="#fc8b5b" d="M 300.5,87.5 C 299.778,87.9175 299.278,88.5842 299,89.5C 298.432,102.328 296.765,114.995 294,127.5C 290.761,138.961 287.261,150.295 283.5,161.5C 272.54,129.549 257.207,99.8824 237.5,72.5C 246.55,69.2556 255.884,67.0889 265.5,66C 272.798,64.7166 280.131,64.3833 287.5,65C 291.2,72.904 295.533,80.404 300.5,87.5 Z"/></g>
<g><path style="opacity:1" fill="#fc754c" d="M 300.5,65.5 C 327.013,66.3811 352.013,73.5477 375.5,87C 412.958,136.619 424.458,191.786 410,252.5C 405.256,253.064 400.423,253.064 395.5,252.5C 394.425,209.44 380.925,170.774 355,136.5C 342.379,120.21 329.379,104.21 316,88.5C 310.315,81.1129 305.148,73.4463 300.5,65.5 Z"/></g>
<g><path style="opacity:1" fill="#884b31" d="M 90.5,68.5 C 93.8333,69.1667 97.1667,69.8333 100.5,70.5C 96.774,70.8226 93.1073,70.4892 89.5,69.5C 89.6236,68.8933 89.9569,68.56 90.5,68.5 Z"/></g>
<g><path style="opacity:1" fill="#fd8c5b" d="M 275.5,178.5 C 273.926,178.937 272.759,179.937 272,181.5C 245.41,226.213 207.244,256.213 157.5,271.5C 157.434,257.058 158.601,242.725 161,228.5C 165.523,205.405 170.523,182.405 176,159.5C 181.984,138.764 178.484,119.93 165.5,103C 183.875,90.9759 203.542,81.9759 224.5,76C 248.245,106.657 265.245,140.824 275.5,178.5 Z"/></g>
<g><path style="opacity:1" fill="#fc8b5b" d="M 77.5,82.5 C 94.6832,80.9655 111.35,83.1321 127.5,89C 134.34,92.2502 140.673,96.2502 146.5,101C 93.8152,141.158 58.6485,193.324 41,257.5C 23.9027,192.911 36.0694,134.577 77.5,82.5 Z"/></g>
<g><path style="opacity:1" fill="#fd764c" d="M 300.5,87.5 C 314.453,105.292 328.62,122.959 343,140.5C 363.339,166.855 376.339,196.522 382,229.5C 383.087,236.46 383.587,243.46 383.5,250.5C 354.817,249.252 326.817,252.919 299.5,261.5C 299.141,227.349 293.808,194.015 283.5,161.5C 287.261,150.295 290.761,138.961 294,127.5C 296.765,114.995 298.432,102.328 299,89.5C 299.278,88.5842 299.778,87.9175 300.5,87.5 Z"/></g>
<g><path style="opacity:1" fill="#fd8c5b" d="M 145.5,274.5 C 114.576,281.384 83.7423,281.051 53,273.5C 52.0979,273.743 51.2646,274.077 50.5,274.5C 64.6243,206.292 99.4576,151.625 155,110.5C 162.605,118.118 166.439,127.451 166.5,138.5C 166.077,145.548 165.244,152.548 164,159.5C 158.249,181.678 153.249,204.011 149,226.5C 146.933,242.437 145.766,258.437 145.5,274.5 Z"/></g>
<g><path style="opacity:1" fill="#fd764c" d="M 275.5,178.5 C 284.03,207.214 287.697,236.548 286.5,266.5C 272.768,272.199 259.435,278.699 246.5,286C 243.395,288.254 242.728,291.087 244.5,294.5C 241.411,296.925 238.078,298.925 234.5,300.5C 227.297,296.786 223.963,299.119 224.5,307.5C 224.573,309.027 223.906,310.027 222.5,310.5C 220.343,312.412 218.009,314.079 215.5,315.5C 211.877,313.937 208.544,314.437 205.5,317C 193.145,329.509 182.145,343.009 172.5,357.5C 167.546,351.044 164.713,343.711 164,335.5C 160.05,314.338 157.884,293.004 157.5,271.5C 207.244,256.213 245.41,226.213 272,181.5C 272.759,179.937 273.926,178.937 275.5,178.5 Z"/></g>
<g><path style="opacity:1" fill="#b46858" d="M 406.5,458.5 C 337.057,468.641 282.89,444.641 244,386.5C 242.214,383.264 240.714,379.93 239.5,376.5C 243.816,373.86 248.149,371.194 252.5,368.5C 255.117,372.849 257.45,377.349 259.5,382C 264.755,383.808 268.089,382.141 269.5,377C 268.146,373.123 266.646,369.29 265,365.5C 264.333,364.167 264.333,362.833 265,361.5C 277.847,354.493 291.013,348.16 304.5,342.5C 306.623,346.701 308.457,351.035 310,355.5C 312.21,358.29 315.044,359.123 318.5,358C 320.594,356.745 321.594,354.912 321.5,352.5C 319.468,347.578 317.968,342.578 317,337.5C 330.04,332.042 343.373,327.375 357,323.5C 357.833,323.833 358.667,324.167 359.5,324.5C 361.196,329.393 363.529,333.893 366.5,338C 371.696,339.623 374.696,337.79 375.5,332.5C 374.252,328.17 372.585,324.003 370.5,320C 383.964,316.038 397.631,312.705 411.5,310C 414.476,305.906 413.809,302.573 409.5,300C 395.58,300.883 381.913,303.383 368.5,307.5C 367.5,307.167 366.5,306.833 365.5,306.5C 363.959,302.678 361.959,299.178 359.5,296C 354.499,294.33 351.499,295.996 350.5,301C 351.492,303.988 352.492,306.988 353.5,310C 353.355,310.772 353.022,311.439 352.5,312C 338.364,316.545 324.364,321.378 310.5,326.5C 310.185,320.825 307.518,316.825 302.5,314.5C 297.156,315.345 295.323,318.345 297,323.5C 298.823,326.242 299.323,329.075 298.5,332C 285.768,337.199 273.435,343.199 261.5,350C 260.365,350.749 259.365,350.583 258.5,349.5C 257.485,345.97 255.819,342.803 253.5,340C 251.167,339.333 248.833,339.333 246.5,340C 245.02,341.299 244.354,342.966 244.5,345C 245.33,348.989 246.663,352.822 248.5,356.5C 243.61,359.774 238.61,362.774 233.5,365.5C 226.632,347.828 222.966,329.495 222.5,310.5C 223.906,310.027 224.573,309.027 224.5,307.5C 228.004,311.435 231.504,311.435 235,307.5C 235.703,305.071 235.537,302.738 234.5,300.5C 238.078,298.925 241.411,296.925 244.5,294.5C 245.627,295.122 246.627,295.955 247.5,297C 248.833,297.667 250.167,297.667 251.5,297C 299.974,267.198 352.307,256.865 408.5,266C 414.528,266.87 420.361,268.37 426,270.5C 442.038,309.406 458.204,348.239 474.5,387C 457.572,416.409 434.906,440.243 406.5,458.5 Z"/></g>
<g><path style="opacity:1" fill="#fc764c" d="M 145.5,274.5 C 145.335,291.85 147.002,309.017 150.5,326C 150.167,326.5 149.833,327 149.5,327.5C 132.382,313.033 112.549,305.699 90,305.5C 81.069,305.825 72.2356,306.658 63.5,308C 58.3655,300.235 53.8655,292.068 50,283.5C 49.2642,280.408 49.4309,277.408 50.5,274.5C 51.2646,274.077 52.0979,273.743 53,273.5C 83.7423,281.051 114.576,281.384 145.5,274.5 Z"/></g>
<g><path style="opacity:1" fill="#ececf9" d="M 441.5,275.5 C 448.268,277.466 454.768,280.132 461,283.5C 470.779,306.725 480.279,330.058 489.5,353.5C 487.606,360.188 484.94,366.521 481.5,372.5C 467.883,340.268 454.55,307.935 441.5,275.5 Z"/></g>
<g><path style="opacity:1" fill="#ae6555" d="M 477.5,291.5 C 482.68,295.171 488.014,298.671 493.5,302C 498.948,307.069 500.781,313.236 499,320.5C 498.038,325.003 496.705,329.336 495,333.5C 488.878,319.593 483.045,305.593 477.5,291.5 Z"/></g>
<g><path style="opacity:1" fill="#050202" d="M 239.5,376.5 C 236.185,379.408 232.352,381.408 228,382.5C 222.977,381.458 221.31,378.458 223,373.5C 226.4,370.586 229.9,367.92 233.5,365.5C 238.61,362.774 243.61,359.774 248.5,356.5C 246.663,352.822 245.33,348.989 244.5,345C 244.354,342.966 245.02,341.299 246.5,340C 248.833,339.333 251.167,339.333 253.5,340C 255.819,342.803 257.485,345.97 258.5,349.5C 259.365,350.583 260.365,350.749 261.5,350C 273.435,343.199 285.768,337.199 298.5,332C 299.323,329.075 298.823,326.242 297,323.5C 295.323,318.345 297.156,315.345 302.5,314.5C 307.518,316.825 310.185,320.825 310.5,326.5C 324.364,321.378 338.364,316.545 352.5,312C 353.022,311.439 353.355,310.772 353.5,310C 352.492,306.988 351.492,303.988 350.5,301C 351.499,295.996 354.499,294.33 359.5,296C 361.959,299.178 363.959,302.678 365.5,306.5C 366.5,306.833 367.5,307.167 368.5,307.5C 381.913,303.383 395.58,300.883 409.5,300C 413.809,302.573 414.476,305.906 411.5,310C 397.631,312.705 383.964,316.038 370.5,320C 372.585,324.003 374.252,328.17 375.5,332.5C 374.696,337.79 371.696,339.623 366.5,338C 363.529,333.893 361.196,329.393 359.5,324.5C 358.667,324.167 357.833,323.833 357,323.5C 343.373,327.375 330.04,332.042 317,337.5C 317.968,342.578 319.468,347.578 321.5,352.5C 321.594,354.912 320.594,356.745 318.5,358C 315.044,359.123 312.21,358.29 310,355.5C 308.457,351.035 306.623,346.701 304.5,342.5C 291.013,348.16 277.847,354.493 265,361.5C 264.333,362.833 264.333,364.167 265,365.5C 266.646,369.29 268.146,373.123 269.5,377C 268.089,382.141 264.755,383.808 259.5,382C 257.45,377.349 255.117,372.849 252.5,368.5C 248.149,371.194 243.816,373.86 239.5,376.5 Z"/></g>
<g><path style="opacity:1" fill="#080302" d="M 234.5,300.5 C 235.537,302.738 235.703,305.071 235,307.5C 231.504,311.435 228.004,311.435 224.5,307.5C 223.963,299.119 227.297,296.786 234.5,300.5 Z"/></g>
<g><path style="opacity:1" fill="#a75a49" d="M 222.5,310.5 C 222.966,329.495 226.632,347.828 233.5,365.5C 229.9,367.92 226.4,370.586 223,373.5C 221.31,378.458 222.977,381.458 228,382.5C 232.352,381.408 236.185,379.408 239.5,376.5C 240.714,379.93 242.214,383.264 244,386.5C 282.89,444.641 337.057,468.641 406.5,458.5C 363.48,486.82 316.147,499.653 264.5,497C 257.367,496.529 250.367,495.362 243.5,493.5C 224.736,448.374 206.069,403.207 187.5,358C 195.453,345.644 204.953,334.477 216,324.5C 218.12,321.303 217.953,318.303 215.5,315.5C 218.009,314.079 220.343,312.412 222.5,310.5 Z"/></g>
<g><path style="opacity:1" fill="#f0f0fd" d="M 126.5,326.5 C 118.431,369.237 94.4306,399.237 54.5,416.5C 55.1646,410.523 55.498,404.523 55.5,398.5C 59.4761,399.331 63.4761,399.497 67.5,399C 72.2852,395.74 72.6185,392.073 68.5,388C 64.1866,387.265 59.8533,386.765 55.5,386.5C 55.4954,377.099 54.9954,367.766 54,358.5C 57.1667,356.667 60.3333,354.833 63.5,353C 69.2078,347.714 68.5411,343.547 61.5,340.5C 57.7103,342.229 54.0436,344.229 50.5,346.5C 48.835,341.839 47.1684,337.172 45.5,332.5C 52.4572,326.52 60.4572,322.353 69.5,320C 89.3216,315.48 108.322,317.647 126.5,326.5 Z"/></g>
<g><path style="opacity:1" fill="#e4e4fc" d="M 126.5,326.5 C 134.981,330.643 142.314,336.31 148.5,343.5C 145.863,347.968 143.03,352.302 140,356.5C 137.463,353.628 134.63,351.128 131.5,349C 125.171,348.332 122.671,351.166 124,357.5C 127.882,361.046 131.382,364.879 134.5,369C 130.926,376.89 128.259,385.056 126.5,393.5C 121.489,393.334 116.489,393.501 111.5,394C 107.5,397.333 107.5,400.667 111.5,404C 115.026,405.337 118.692,405.837 122.5,405.5C 120.988,415.11 119.988,424.776 119.5,434.5C 115.307,434.953 111.307,436.119 107.5,438C 104.731,441.607 105.064,444.94 108.5,448C 111.996,448.695 115.33,448.195 118.5,446.5C 119.529,453.831 120.029,461.164 120,468.5C 94.7445,478.312 70.5778,476.145 47.5,462C 46.2718,461.221 45.2718,460.221 44.5,459C 46.6852,452.615 48.3519,446.115 49.5,439.5C 52.5039,440.089 55.3373,441.089 58,442.5C 63.2322,441.711 65.2322,438.711 64,433.5C 61.2338,430.907 58.0672,428.907 54.5,427.5C 53.5397,423.861 53.5397,420.195 54.5,416.5C 94.4306,399.237 118.431,369.237 126.5,326.5 Z"/></g>
<g><path style="opacity:1" fill="#ececf8" d="M 24.5,422.5 C 22.7211,424.344 20.3878,425.01 17.5,424.5C 5.60719,392.869 11.4405,364.869 35,340.5C 36.9847,344.284 38.4847,348.284 39.5,352.5C 37.2692,354.886 34.6025,356.719 31.5,358C 25.9725,363.072 26.6391,367.238 33.5,370.5C 36.3888,369.611 39.0554,368.278 41.5,366.5C 43.1568,372.377 43.8234,378.377 43.5,384.5C 39.4934,383.996 35.4934,383.83 31.5,384C 27.5125,387.713 27.5125,391.38 31.5,395C 35.466,395.828 39.466,396.328 43.5,396.5C 43.712,404.292 42.8787,411.959 41,419.5C 37.5742,417.287 33.9076,415.62 30,414.5C 25.9716,415.532 24.1383,418.199 24.5,422.5 Z"/></g>
<g><path style="opacity:1" fill="#e0e0f9" d="M 155.5,354.5 C 162.318,362.825 166.485,372.492 168,383.5C 171.342,416.806 159.508,443.139 132.5,462.5C 131.503,455.866 131.17,449.2 131.5,442.5C 136.582,441.306 141.582,439.806 146.5,438C 149.343,434.381 149.01,431.048 145.5,428C 141.044,427.422 136.711,427.922 132.5,429.5C 132.511,422.101 133.178,414.767 134.5,407.5C 139.149,408.295 143.816,408.461 148.5,408C 152.809,405.427 153.476,402.094 150.5,398C 146.654,396.464 142.654,395.631 138.5,395.5C 139.313,389.393 141.313,383.726 144.5,378.5C 146.691,381.043 149.358,382.709 152.5,383.5C 158.455,382.287 159.955,378.954 157,373.5C 154.317,370.984 151.817,368.317 149.5,365.5C 151.779,361.939 153.779,358.273 155.5,354.5 Z"/></g>
<g><path style="opacity:1" fill="#c6c6e9" d="M 178.5,371.5 C 179.458,371.953 180.292,372.619 181,373.5C 196.976,412.431 213.142,451.265 229.5,490C 223.414,488.976 217.414,487.31 211.5,485C 200.428,460.797 189.928,436.297 180,411.5C 180.006,406.362 180.173,401.195 180.5,396C 180.666,388.328 179.666,380.828 177.5,373.5C 177.863,372.817 178.196,372.15 178.5,371.5 Z"/></g>
<g><path style="opacity:1" fill="#dfdff7" d="M 24.5,422.5 C 29.2548,426.39 34.2548,430.056 39.5,433.5C 37.8203,439.22 35.9869,444.887 34,450.5C 26.2325,443.241 20.7325,434.574 17.5,424.5C 20.3878,425.01 22.7211,424.344 24.5,422.5 Z"/></g>
<g><path style="opacity:1" fill="#a35847" d="M 173.5,430.5 C 174.497,430.47 175.164,430.97 175.5,432C 182.282,447.241 188.282,462.408 193.5,477.5C 180.745,471.714 169.078,464.381 158.5,455.5C 165.297,448.239 170.297,439.905 173.5,430.5 Z"/></g>
</svg>
